<svg xmlns="http://www.w3.org/2000/svg" width="87" height="40" viewBox="0 0 87 40" role="img">
<rect x="0.75" y="0.75" width="85.5" height="38.5" rx="20.0" fill="#1d4ed8" stroke="#1d4ed8" stroke-width="1.5"/><path fill="#fefdfb" transform="translate(22,24.3)" d="M0.8 0V-8.4H6.2V-7.1H2.3V-4.9H5.8V-3.6H2.3V-1.3H6.2V0Z M9.7 0V-8.4H12.4L14 -1H14.2L15.8 -8.4H18.5V0H17.1V-7.4H16.9L15.3 0H12.9L11.3 -7.4H11.1V0Z M21.8 0 24.1 -8.4H26.6L28.9 0H27.4L26.9 -1.9H23.8L23.3 0ZM24.1 -3.2H26.6L25.4 -7.5H25.2Z M32.1 0V-8.4H33.6V0Z M37.4 0V-8.4H38.8V-1.3H42.8V0Z"/>
</svg>
