<svg xmlns="http://www.w3.org/2000/svg" width="1200" height="72" viewBox="0 0 1200 72" role="img">
<rect x="0.5" y="0.5" width="1199" height="71" rx="14" fill="#fefdfb" stroke="#f3f0e9"/>
<defs><clipPath id="clip"><rect x="0" y="0" width="1200" height="72" rx="14"/></clipPath></defs>
<path fill="#1d4ed8" d="M36.2 42.2Q34.6 42.2 33.6 41.3Q32.7 40.4 32.7 38.6V36.3Q32.7 34.6 33.6 33.6Q34.6 32.7 36.2 32.7Q37.8 32.7 38.8 33.6Q39.7 34.6 39.7 36.3V38.6Q39.7 40.4 38.8 41.3Q37.8 42.2 36.2 42.2ZM36.2 40.8Q37.2 40.8 37.7 40.3Q38.2 39.7 38.2 38.6V36.3Q38.2 35.2 37.7 34.6Q37.1 34.1 36.2 34.1Q35.2 34.1 34.7 34.6Q34.2 35.2 34.2 36.3V38.6Q34.2 39.7 34.7 40.3Q35.2 40.8 36.2 40.8Z M48.2 42.2Q47.2 42.2 46.4 41.8Q45.7 41.5 45.2 40.8Q44.8 40.1 44.8 39.1V38.9H46.3V39.1Q46.3 39.9 46.8 40.4Q47.4 40.8 48.2 40.8Q49.1 40.8 49.6 40.4Q50.1 40 50.1 39.3V39.2Q50.1 38.7 49.9 38.4Q49.7 38.1 49.3 38Q48.9 37.9 48.4 37.9H46.7V36.2L49.8 34.4V34.3H45V32.9H51.4V34.9L48.5 36.6V36.8H49Q49.7 36.8 50.3 37Q50.9 37.3 51.3 37.8Q51.6 38.3 51.6 39.1V39.3Q51.6 40.2 51.2 40.8Q50.8 41.5 50 41.8Q49.3 42.2 48.2 42.2Z"/>
<path fill="#111827" d="M78.1 42.2Q77.1 42.2 76.3 41.8Q75.5 41.4 75 40.7Q74.6 40 74.6 39V38.7H76.1V39Q76.1 39.9 76.7 40.4Q77.2 40.8 78.1 40.8Q79 40.8 79.5 40.4Q80 40 80 39.5Q80 39 79.8 38.8Q79.5 38.5 79.1 38.4Q78.7 38.2 78.1 38.1L77.7 38Q76.8 37.8 76.1 37.5Q75.5 37.2 75.1 36.7Q74.8 36.1 74.8 35.3Q74.8 34.5 75.2 33.9Q75.6 33.3 76.3 33Q77 32.7 78 32.7Q78.9 32.7 79.7 33Q80.4 33.4 80.9 34Q81.3 34.7 81.3 35.6V36.1H79.8V35.6Q79.8 35.1 79.5 34.7Q79.3 34.4 78.9 34.2Q78.5 34.1 78 34.1Q77.2 34.1 76.7 34.4Q76.3 34.7 76.3 35.3Q76.3 35.7 76.5 35.9Q76.7 36.2 77.1 36.3Q77.4 36.5 78 36.6L78.4 36.7Q79.3 36.9 80 37.2Q80.7 37.5 81.1 38.1Q81.5 38.6 81.5 39.4Q81.5 40.2 81.1 40.9Q80.7 41.5 79.9 41.8Q79.2 42.2 78.1 42.2Z M88.9 42V34.3H86.2V32.9H93.2V34.3H90.5V42Z M97.7 42 100.2 32.9H102.9L105.4 42H103.8L103.3 39.9H99.8L99.3 42ZM100.2 38.5H102.9L101.7 33.9H101.4Z M113.9 42.2Q112.2 42.2 111.2 41.2Q110.2 40.3 110.2 38.5V36.4Q110.2 34.6 111.2 33.7Q112.2 32.7 113.9 32.7Q115.5 32.7 116.5 33.6Q117.4 34.5 117.4 36.1V36.2H115.8V36.1Q115.8 35.2 115.3 34.7Q114.9 34.1 113.9 34.1Q112.9 34.1 112.4 34.7Q111.8 35.3 111.8 36.3V38.6Q111.8 39.6 112.4 40.2Q112.9 40.8 113.9 40.8Q114.9 40.8 115.3 40.2Q115.8 39.7 115.8 38.8V38.6H117.4V38.8Q117.4 40.4 116.5 41.3Q115.5 42.2 113.9 42.2Z M122.7 42V32.9H124.3V36.6H124.5L127.7 32.9H129.7L125.7 37.4L129.8 42H127.8L124.5 38.2H124.3V42Z"/>
<path fill="#1d4ed8" fill-opacity="0.35" transform="translate(1038.2,44)" d="M13.4 -15.6H16.1L3.8 0H0V-15.6H2.1V-1.4ZM8.1 0 7 -1.6 16.1 -6.4 17.2 -4.8Z M34 -15.6H36.2V-2.9L41 -8.1H43.7L36.2 0H34L26.5 -8.1H29.2L34 -2.9Z M59.2 -8.9 53 -15.6H55.7L59.9 -11H69.6V-15.6H71.8V-8.9ZM71.8 -6.7V0H69.6V-4.6H59.9L55.7 0H53L59.2 -6.7Z M87.6 -10.2V-5.4H85.4V-10.2ZM91.8 -15.6V-5.4H89.7V-15.6ZM83.3 -10.2V0H81.1V-10.2Z M118.3 -4.8H120.5Q120.4 -0.5 117.8 0H103.8Q101.2 -0.5 101.2 -5.4V-10.2Q101.2 -15 103.8 -15.6H117.8Q120.4 -15.1 120.5 -10.7H118.3Q118.2 -13.4 116.7 -13.4H104.9Q103.3 -13.4 103.3 -10.2V-5.4Q103.3 -2.1 104.9 -2.1H116.7Q118.2 -2.1 118.3 -4.8Z"/>
<line x1="157.811" y1="37.5" x2="1014.2" y2="37.5" stroke="#f3f0e9" stroke-width="1.5"/>
</svg>
