<svg xmlns="http://www.w3.org/2000/svg" width="1200" height="74" viewBox="0 0 1200 74" role="img">
<rect x="0.5" y="0.5" width="1199" height="73" rx="14" fill="#fefdfb" stroke="#f3f0e9"/>
<defs><clipPath id="clip"><rect x="0" y="0" width="1200" height="74" rx="14"/></clipPath></defs>
<defs><path id="row11" d="M18.3 -21.2H22L5.1 0H0V-21.2H2.9V-1.8ZM11 0 9.5 -2.2 22 -8.8 23.4 -6.6Z M45.7 -16.8 44.2 -14.6 40.6 -17.6V0H37.6V-21.2H40.6Z M60.6 0 59.9 -1.5 68.7 -21.2H73.1L81.9 -1.5L81.1 0ZM77.6 -2.9 70.9 -18 64.1 -2.9Z M99 -2.9H111.4Q113.6 -2.9 113.6 -7.3V-13.9Q113.6 -18.3 111.4 -18.3V-14.6H108.5V-21.2H112.9Q116.6 -20.5 116.6 -13.9V-7.3Q116.6 -0.7 112.9 0H96.1V-21.2H99Z M130.8 0V-21.2H133.7V-3.4L148.3 -13.2L151.3 -11.7L133.7 0Z M174 -12.1 165.5 -21.2H169.1L174.9 -15H188.2V-21.2H191.1V-12.1ZM191.1 -9.2V0H188.2V-6.2H174.9L169.1 0H165.5L174 -9.2Z M223.7 -2.9Q225.9 -2.9 225.9 -7.3V-13.9Q225.9 -18.3 223.7 -18.3V-21.2H225.2Q228.8 -20.5 228.8 -13.9V-7.3Q228.8 -0.7 225.2 0H219.7L214.1 -16.8L208.6 0H205.3L212.3 -21.2H215.9L222.2 -2.9Z M248.8 -18.3V0H245.9V-18.3H242.9V-21.2H252.1L257.6 -4.5L263.1 -21.2H266.4L259.4 0H255.8L249.4 -18.3Z M290.8 -21.2H293.8V-3.9L300.3 -11H304L293.8 0H290.8L280.6 -11H284.2L290.8 -3.9Z M336.5 -21.2H340.2L323.3 0H318.2V-21.2H321.1V-1.8ZM329.2 0 327.7 -2.2 340.2 -8.8 341.6 -6.6Z   "/></defs><g clip-path="url(#clip)"><g transform="rotate(-6 600.0 37.0)" fill="#1d4ed8" fill-opacity="0.035"><use href="#row11" x="-360.0" y="-30.0"/><use href="#row11" x="84.0" y="-30.0"/><use href="#row11" x="528.0" y="-30.0"/><use href="#row11" x="972.0" y="-30.0"/><use href="#row11" x="1416.0" y="-30.0"/><use href="#row11" x="1860.0" y="-30.0"/><use href="#row11" x="-508.0" y="21.0"/><use href="#row11" x="-64.0" y="21.0"/><use href="#row11" x="380.0" y="21.0"/><use href="#row11" x="824.0" y="21.0"/><use href="#row11" x="1268.0" y="21.0"/><use href="#row11" x="1712.0" y="21.0"/><use href="#row11" x="-656.0" y="72.0"/><use href="#row11" x="-212.0" y="72.0"/><use href="#row11" x="232.0" y="72.0"/><use href="#row11" x="676.0" y="72.0"/><use href="#row11" x="1120.0" y="72.0"/><use href="#row11" x="1564.0" y="72.0"/><use href="#row11" x="-360.0" y="123.0"/><use href="#row11" x="84.0" y="123.0"/><use href="#row11" x="528.0" y="123.0"/><use href="#row11" x="972.0" y="123.0"/><use href="#row11" x="1416.0" y="123.0"/><use href="#row11" x="1860.0" y="123.0"/><use href="#row11" x="-508.0" y="174.0"/><use href="#row11" x="-64.0" y="174.0"/><use href="#row11" x="380.0" y="174.0"/><use href="#row11" x="824.0" y="174.0"/><use href="#row11" x="1268.0" y="174.0"/><use href="#row11" x="1712.0" y="174.0"/></g></g>
<rect x="30" y="21" width="110.1" height="32" rx="16" fill="#1d4ed8"/>
<path fill="#fefdfb" transform="translate(45,42)" d="M1 0V-9.8H7.1V-8.3H2.7V-5.7H6.7V-4.1H2.7V0Z M15.3 0.2Q13.5 0.2 12.4 -0.8Q11.3 -1.8 11.3 -3.7V-6.1Q11.3 -8 12.4 -9Q13.5 -10 15.3 -10Q17.1 -10 18.2 -9Q19.3 -8 19.3 -6.1V-3.7Q19.3 -1.8 18.2 -0.8Q17.1 0.2 15.3 0.2ZM15.3 -1.3Q16.4 -1.3 17 -2Q17.6 -2.6 17.6 -3.7V-6.1Q17.6 -7.2 17 -7.8Q16.4 -8.5 15.3 -8.5Q14.2 -8.5 13.6 -7.8Q13 -7.2 13 -6.1V-3.7Q13 -2.6 13.6 -2Q14.2 -1.3 15.3 -1.3Z M27.8 0.2Q26.6 0.2 25.8 -0.2Q24.9 -0.7 24.5 -1.5Q24 -2.3 24 -3.4V-9.8H25.7V-3.4Q25.7 -2.4 26.2 -1.8Q26.8 -1.3 27.8 -1.3Q28.8 -1.3 29.3 -1.8Q29.9 -2.4 29.9 -3.4V-9.8H31.6V-3.4Q31.6 -2.3 31.1 -1.5Q30.7 -0.7 29.8 -0.2Q29 0.2 27.8 0.2Z M36.5 0V-9.8H39.7L42 -1.1H42.3V-9.8H43.9V0H40.7L38.4 -8.7H38.2V0Z M48.6 0V-1.5H49.9V-8.3H48.6V-9.8H52.6Q54.6 -9.8 55.6 -8.8Q56.7 -7.8 56.7 -5.8V-4Q56.7 -2 55.6 -1Q54.6 0 52.6 0ZM51.6 -1.5H52.6Q53.8 -1.5 54.4 -2.1Q55 -2.8 55 -3.9V-5.9Q55 -7.1 54.4 -7.7Q53.8 -8.3 52.6 -8.3H51.6Z M61.4 0V-9.8H67.6V-8.3H63V-5.7H67.2V-4.2H63V-1.5H67.7V0Z M72.2 0V-9.8H76.4Q77.3 -9.8 78 -9.5Q78.7 -9.2 79.1 -8.6Q79.5 -8 79.5 -7.2V-7Q79.5 -6.1 79 -5.6Q78.6 -5 78 -4.8V-4.5Q78.5 -4.5 78.8 -4.2Q79.2 -3.8 79.2 -3.2V0H77.5V-3Q77.5 -3.3 77.3 -3.6Q77.1 -3.8 76.7 -3.8H73.9V0ZM73.9 -5.3H76.2Q77 -5.3 77.4 -5.7Q77.8 -6.1 77.8 -6.7V-6.9Q77.8 -7.5 77.4 -7.9Q77 -8.3 76.2 -8.3H73.9Z"/>
<path fill="#111827" d="M166.8 42.2Q165 42.2 163.9 41.2Q162.9 40.2 162.9 38.3V35.9Q162.9 34 163.9 33Q165 32 166.8 32Q168.5 32 169.5 33Q170.4 34 170.4 35.7V35.7H168.9V35.6Q168.9 34.6 168.4 34Q167.9 33.4 166.8 33.4Q165.6 33.4 165 34Q164.4 34.7 164.4 35.9V38.3Q164.4 39.5 165 40.2Q165.6 40.8 166.8 40.8Q167.9 40.8 168.4 40.2Q168.9 39.6 168.9 38.6V38.4H170.4V38.5Q170.4 40.2 169.5 41.2Q168.5 42.2 166.8 42.2Z M178.3 42.2Q177.2 42.2 176.3 41.8Q175.5 41.4 175 40.6Q174.6 39.8 174.6 38.6V32.2H176.1V38.7Q176.1 39.7 176.7 40.3Q177.2 40.8 178.3 40.8Q179.4 40.8 179.9 40.3Q180.5 39.7 180.5 38.7V32.2H182V38.6Q182 39.8 181.6 40.6Q181.1 41.4 180.3 41.8Q179.5 42.2 178.3 42.2Z M189.9 42.2Q188.8 42.2 187.9 41.8Q187 41.4 186.6 40.7Q186.1 39.9 186.1 38.8V38.4H187.6V38.8Q187.6 39.8 188.2 40.4Q188.8 40.9 189.9 40.9Q190.9 40.9 191.4 40.4Q192 40 192 39.3Q192 38.8 191.7 38.5Q191.5 38.2 191 38.1Q190.5 37.9 189.9 37.7L189.4 37.6Q188.4 37.4 187.7 37.1Q187.1 36.7 186.7 36.2Q186.3 35.6 186.3 34.8Q186.3 33.9 186.7 33.3Q187.1 32.7 187.9 32.3Q188.7 32 189.7 32Q190.7 32 191.5 32.4Q192.3 32.7 192.8 33.4Q193.2 34.1 193.2 35.1V35.6H191.8V35.1Q191.8 34.5 191.5 34.1Q191.2 33.7 190.8 33.5Q190.3 33.3 189.7 33.3Q188.8 33.3 188.3 33.7Q187.8 34.1 187.8 34.7Q187.8 35.2 188 35.5Q188.2 35.8 188.7 35.9Q189.1 36.1 189.7 36.3L190.2 36.4Q191.2 36.6 191.9 36.9Q192.6 37.3 193.1 37.8Q193.5 38.4 193.5 39.3Q193.5 40.1 193 40.8Q192.6 41.5 191.8 41.8Q191 42.2 189.9 42.2Z M199.9 42V33.6H196.9V32.2H204.4V33.6H201.4V42Z M212 42.2Q210.2 42.2 209.1 41.2Q208.1 40.2 208.1 38.3V35.9Q208.1 34 209.1 33Q210.2 32 212 32Q213.8 32 214.9 33Q215.9 34 215.9 35.9V38.3Q215.9 40.2 214.9 41.2Q213.8 42.2 212 42.2ZM212 40.8Q213.2 40.8 213.8 40.2Q214.4 39.5 214.4 38.3V35.9Q214.4 34.7 213.8 34Q213.2 33.4 212 33.4Q210.9 33.4 210.2 34Q209.6 34.7 209.6 35.9V38.3Q209.6 39.5 210.2 40.2Q210.9 40.8 212 40.8Z M220.3 42V32.2H223.1L225.2 41H225.5L227.6 32.2H230.5V42H229V33.3H228.8L226.6 42H224.1L222 33.3H221.7V42Z  M241.1 42V32.2H245Q245.9 32.2 246.6 32.6Q247.3 32.9 247.7 33.6Q248.1 34.2 248.1 35.1V35.3Q248.1 36.2 247.7 36.9Q247.3 37.5 246.6 37.9Q245.9 38.2 245 38.2H242.6V42ZM242.6 36.9H244.8Q245.6 36.9 246.1 36.4Q246.6 36 246.6 35.3V35.1Q246.6 34.4 246.1 34Q245.7 33.6 244.8 33.6H242.6Z M252.1 42V32.2H256.2Q257.1 32.2 257.8 32.5Q258.5 32.8 258.9 33.4Q259.2 34 259.2 34.8V35Q259.2 35.9 258.8 36.4Q258.4 37 257.7 37.2V37.4Q258.3 37.5 258.6 37.8Q258.9 38.1 258.9 38.7V42H257.4V39Q257.4 38.6 257.2 38.4Q257 38.1 256.6 38.1H253.6V42ZM253.6 36.8H256Q256.8 36.8 257.3 36.4Q257.7 35.9 257.7 35.2V35.1Q257.7 34.4 257.3 34Q256.9 33.6 256 33.6H253.6Z M263.4 42V32.2H265V42Z M269.5 42V32.2H272.4L275.1 41H275.3V32.2H276.8V42H273.9L271.2 33.2H271V42Z M283.7 42V33.6H280.7V32.2H288.2V33.6H285.2V42Z  M301.5 42.2Q300.4 42.2 299.6 41.8Q298.7 41.4 298.3 40.7Q297.8 39.9 297.8 38.8V38.4H299.3V38.8Q299.3 39.8 299.9 40.4Q300.5 40.9 301.5 40.9Q302.6 40.9 303.1 40.4Q303.7 40 303.7 39.3Q303.7 38.8 303.4 38.5Q303.2 38.2 302.7 38.1Q302.2 37.9 301.6 37.7L301.1 37.6Q300.1 37.4 299.4 37.1Q298.8 36.7 298.4 36.2Q298 35.6 298 34.8Q298 33.9 298.4 33.3Q298.8 32.7 299.6 32.3Q300.4 32 301.4 32Q302.4 32 303.2 32.4Q304 32.7 304.5 33.4Q304.9 34.1 304.9 35.1V35.6H303.4V35.1Q303.4 34.5 303.2 34.1Q302.9 33.7 302.5 33.5Q302 33.3 301.4 33.3Q300.5 33.3 300 33.7Q299.5 34.1 299.5 34.7Q299.5 35.2 299.7 35.5Q299.9 35.8 300.3 35.9Q300.8 36.1 301.4 36.3L301.9 36.4Q302.9 36.6 303.6 36.9Q304.3 37.3 304.7 37.8Q305.2 38.4 305.2 39.3Q305.2 40.1 304.7 40.8Q304.3 41.5 303.5 41.8Q302.6 42.2 301.5 42.2Z M311.6 42V33.6H308.6V32.2H316.1V33.6H313.1V42Z M323.7 42.2Q322.5 42.2 321.7 41.8Q320.9 41.4 320.4 40.6Q319.9 39.8 319.9 38.6V32.2H321.5V38.7Q321.5 39.7 322 40.3Q322.6 40.8 323.7 40.8Q324.7 40.8 325.3 40.3Q325.9 39.7 325.9 38.7V32.2H327.4V38.6Q327.4 39.8 327 40.6Q326.5 41.4 325.7 41.8Q324.8 42.2 323.7 42.2Z M331.5 42V40.7H332.9V33.5H331.5V32.2H335.5Q337.4 32.2 338.5 33.2Q339.5 34.2 339.5 36.2V38Q339.5 40 338.5 41Q337.4 42 335.5 42ZM334.4 40.6H335.5Q336.7 40.6 337.4 40Q338 39.3 338 38.1V36.1Q338 34.9 337.4 34.2Q336.7 33.6 335.5 33.6H334.4Z M343.7 42V32.2H345.2V42Z M353.5 42.2Q351.7 42.2 350.6 41.2Q349.6 40.2 349.6 38.3V35.9Q349.6 34 350.6 33Q351.7 32 353.5 32Q355.3 32 356.4 33Q357.4 34 357.4 35.9V38.3Q357.4 40.2 356.4 41.2Q355.3 42.2 353.5 42.2ZM353.5 40.8Q354.6 40.8 355.3 40.2Q355.9 39.5 355.9 38.3V35.9Q355.9 34.7 355.3 34Q354.6 33.4 353.5 33.4Q352.4 33.4 351.7 34Q351.1 34.7 351.1 35.9V38.3Q351.1 39.5 351.7 40.2Q352.4 40.8 353.5 40.8Z M361.8 43.9V43.1H362.3Q362.9 43.1 362.9 42.5V42.1H362.6Q362.2 42.1 361.8 41.8Q361.5 41.5 361.5 41Q361.5 40.5 361.8 40.2Q362.2 39.9 362.6 39.9Q363.1 39.9 363.4 40.2Q363.8 40.6 363.8 41.1V42.5Q363.8 43.9 362.4 43.9Z  M374.2 42V32.2H380.2V33.6H375.7V36.4H379.9V37.8H375.7V42Z M384.2 42V32.2H388.3Q389.2 32.2 389.9 32.5Q390.6 32.8 391 33.4Q391.4 34 391.4 34.8V35Q391.4 35.9 391 36.4Q390.5 37 389.9 37.2V37.4Q390.4 37.5 390.7 37.8Q391.1 38.1 391.1 38.7V42H389.5V39Q389.5 38.6 389.3 38.4Q389.1 38.1 388.7 38.1H385.7V42ZM385.7 36.8H388.2Q389 36.8 389.4 36.4Q389.9 35.9 389.9 35.2V35.1Q389.9 34.4 389.4 34Q389 33.6 388.2 33.6H385.7Z M395.6 42V32.2H397.1V42Z M405 42.2Q403.9 42.2 403 41.8Q402.2 41.4 401.7 40.7Q401.2 39.9 401.2 38.8V38.4H402.7V38.8Q402.7 39.8 403.3 40.4Q404 40.9 405 40.9Q406 40.9 406.6 40.4Q407.1 40 407.1 39.3Q407.1 38.8 406.9 38.5Q406.6 38.2 406.1 38.1Q405.7 37.9 405 37.7L404.5 37.6Q403.6 37.4 402.9 37.1Q402.2 36.7 401.8 36.2Q401.4 35.6 401.4 34.8Q401.4 33.9 401.9 33.3Q402.3 32.7 403 32.3Q403.8 32 404.8 32Q405.8 32 406.7 32.4Q407.5 32.7 407.9 33.4Q408.4 34.1 408.4 35.1V35.6H406.9V35.1Q406.9 34.5 406.6 34.1Q406.4 33.7 405.9 33.5Q405.4 33.3 404.8 33.3Q403.9 33.3 403.4 33.7Q402.9 34.1 402.9 34.7Q402.9 35.2 403.2 35.5Q403.4 35.8 403.8 35.9Q404.2 36.1 404.8 36.3L405.4 36.4Q406.3 36.6 407 36.9Q407.8 37.3 408.2 37.8Q408.6 38.4 408.6 39.3Q408.6 40.1 408.2 40.8Q407.7 41.5 406.9 41.8Q406.1 42.2 405 42.2Z M416.3 42.2Q414.6 42.2 413.5 41.2Q412.5 40.2 412.5 38.3V35.9Q412.5 34 413.5 33Q414.6 32 416.3 32Q418.1 32 419.1 33Q420 34 420 35.7V35.7H418.5V35.6Q418.5 34.6 418 34Q417.5 33.4 416.3 33.4Q415.2 33.4 414.6 34Q414 34.7 414 35.9V38.3Q414 39.5 414.6 40.2Q415.2 40.8 416.3 40.8Q417.5 40.8 418 40.2Q418.5 39.6 418.5 38.6V38.4H420V38.5Q420 40.2 419.1 41.2Q418.1 42.2 416.3 42.2Z M427.9 42.2Q426.1 42.2 425 41.2Q424 40.2 424 38.3V35.9Q424 34 425 33Q426.1 32 427.9 32Q429.7 32 430.8 33Q431.9 34 431.9 35.9V38.3Q431.9 40.2 430.8 41.2Q429.7 42.2 427.9 42.2ZM427.9 40.8Q429.1 40.8 429.7 40.2Q430.3 39.5 430.3 38.3V35.9Q430.3 34.7 429.7 34Q429.1 33.4 427.9 33.4Q426.8 33.4 426.1 34Q425.5 34.7 425.5 35.9V38.3Q425.5 39.5 426.1 40.2Q426.8 40.8 427.9 40.8Z  M444.6 42V33.6H441.6V32.2H449.1V33.6H446.1V42Z M452.4 42 455.4 37.1 452.4 32.2H454.1L456.4 36H456.6L458.8 32.2H460.5L457.6 37.1L460.6 42H458.8L456.6 38.1H456.4L454.1 42Z   M477.1 39.1Q476.6 39.1 476.3 38.8Q475.9 38.5 475.9 38Q475.9 37.5 476.3 37.2Q476.6 36.8 477.1 36.8Q477.6 36.8 477.9 37.2Q478.2 37.5 478.2 38Q478.2 38.5 477.9 38.8Q477.6 39.1 477.1 39.1Z   M497.6 42.2Q496.5 42.2 495.6 41.8Q494.8 41.4 494.3 40.7Q493.8 39.9 493.8 38.8V38.4H495.3V38.8Q495.3 39.8 495.9 40.4Q496.5 40.9 497.6 40.9Q498.6 40.9 499.1 40.4Q499.7 40 499.7 39.3Q499.7 38.8 499.4 38.5Q499.2 38.2 498.7 38.1Q498.2 37.9 497.6 37.7L497.1 37.6Q496.1 37.4 495.5 37.1Q494.8 36.7 494.4 36.2Q494 35.6 494 34.8Q494 33.9 494.4 33.3Q494.9 32.7 495.6 32.3Q496.4 32 497.4 32Q498.4 32 499.2 32.4Q500 32.7 500.5 33.4Q501 34.1 501 35.1V35.6H499.5V35.1Q499.5 34.5 499.2 34.1Q498.9 33.7 498.5 33.5Q498 33.3 497.4 33.3Q496.5 33.3 496 33.7Q495.5 34.1 495.5 34.7Q495.5 35.2 495.7 35.5Q495.9 35.8 496.4 35.9Q496.8 36.1 497.4 36.3L497.9 36.4Q498.9 36.6 499.6 36.9Q500.3 37.3 500.8 37.8Q501.2 38.4 501.2 39.3Q501.2 40.1 500.7 40.8Q500.3 41.5 499.5 41.8Q498.7 42.2 497.6 42.2Z M505.3 42V32.2H506.8V42Z M510.7 42 513.7 37.1 510.7 32.2H512.5L514.7 36H514.9L517.1 32.2H518.9L515.9 37.1L518.9 42H517.2L514.9 38.1H514.7L512.4 42Z M522.8 42V32.2H526.7Q527.6 32.2 528.3 32.6Q529 32.9 529.4 33.6Q529.8 34.2 529.8 35.1V35.3Q529.8 36.2 529.4 36.9Q529 37.5 528.3 37.9Q527.6 38.2 526.7 38.2H524.4V42ZM524.4 36.9H526.6Q527.4 36.9 527.9 36.4Q528.3 36 528.3 35.3V35.1Q528.3 34.4 527.9 34Q527.4 33.6 526.6 33.6H524.4Z M533.8 42V32.2H535.3V40.6H540V42Z M543.2 42 546 32.2H548.7L551.5 42H549.9L549.3 39.7H545.4L544.8 42ZM545.8 38.3H548.9L547.5 33.1H547.2Z M555.3 42V32.2H558.2L560.9 41H561.1V32.2H562.6V42H559.7L557 33.2H556.8V42Z M567.2 42V32.2H573.3V33.6H568.7V36.4H572.9V37.8H568.7V40.6H573.4V42Z M579.9 42V33.6H576.8V32.2H584.4V33.6H581.4V42Z M591.6 42.2Q590.5 42.2 589.6 41.8Q588.8 41.4 588.3 40.7Q587.8 39.9 587.8 38.8V38.4H589.3V38.8Q589.3 39.8 589.9 40.4Q590.6 40.9 591.6 40.9Q592.6 40.9 593.2 40.4Q593.7 40 593.7 39.3Q593.7 38.8 593.5 38.5Q593.2 38.2 592.8 38.1Q592.3 37.9 591.6 37.7L591.1 37.6Q590.2 37.4 589.5 37.1Q588.8 36.7 588.4 36.2Q588 35.6 588 34.8Q588 33.9 588.5 33.3Q588.9 32.7 589.7 32.3Q590.4 32 591.4 32Q592.5 32 593.3 32.4Q594.1 32.7 594.5 33.4Q595 34.1 595 35.1V35.6H593.5V35.1Q593.5 34.5 593.2 34.1Q593 33.7 592.5 33.5Q592 33.3 591.4 33.3Q590.5 33.3 590 33.7Q589.5 34.1 589.5 34.7Q589.5 35.2 589.8 35.5Q590 35.8 590.4 35.9Q590.8 36.1 591.4 36.3L592 36.4Q592.9 36.6 593.6 36.9Q594.4 37.3 594.8 37.8Q595.2 38.4 595.2 39.3Q595.2 40.1 594.8 40.8Q594.3 41.5 593.5 41.8Q592.7 42.2 591.6 42.2Z M600.2 42.2Q599.7 42.2 599.4 41.9Q599.1 41.6 599.1 41.1Q599.1 40.5 599.4 40.2Q599.7 39.9 600.2 39.9Q600.7 39.9 601 40.2Q601.4 40.6 601.4 41.1Q601.4 41.6 601 41.9Q600.7 42.2 600.2 42.2Z M609.3 42.2Q607.5 42.2 606.5 41.2Q605.4 40.2 605.4 38.3V35.9Q605.4 34 606.5 33Q607.5 32 609.3 32Q611.1 32 612.1 33Q613 34 613 35.7V35.7H611.5V35.6Q611.5 34.6 611 34Q610.5 33.4 609.3 33.4Q608.2 33.4 607.6 34Q607 34.7 607 35.9V38.3Q607 39.5 607.6 40.2Q608.2 40.8 609.3 40.8Q610.5 40.8 611 40.2Q611.5 39.6 611.5 38.6V38.4H613V38.5Q613 40.2 612.1 41.2Q611.1 42.2 609.3 42.2Z M620.9 42.2Q619.1 42.2 618 41.2Q617 40.2 617 38.3V35.9Q617 34 618 33Q619.1 32 620.9 32Q622.7 32 623.8 33Q624.8 34 624.8 35.9V38.3Q624.8 40.2 623.8 41.2Q622.7 42.2 620.9 42.2ZM620.9 40.8Q622.1 40.8 622.7 40.2Q623.3 39.5 623.3 38.3V35.9Q623.3 34.7 622.7 34Q622.1 33.4 620.9 33.4Q619.8 33.4 619.1 34Q618.5 34.7 618.5 35.9V38.3Q618.5 39.5 619.1 40.2Q619.8 40.8 620.9 40.8Z M629.2 42V32.2H632L634.1 41H634.4L636.5 32.2H639.3V42H637.9V33.3H637.7L635.5 42H633L630.9 33.3H630.6V42Z"/>
<path fill="#4b5563" transform="translate(985.8,42)" d="M3.7 0.2Q2.2 0.2 1.4 -0.6Q0.5 -1.4 0.5 -2.9V-3.8H2V-2.9Q2 -2.2 2.4 -1.7Q2.9 -1.2 3.7 -1.2Q4.5 -1.2 4.8 -1.7Q5.2 -2.1 5.2 -2.9V-8.4H3.5V-9.8H7.8V-8.4H6.7V-2.9Q6.7 -1.4 5.9 -0.6Q5.2 0.2 3.7 0.2Z M11.2 0 14 -9.8H16.7L19.5 0H17.9L17.3 -2.3H13.5L12.8 0ZM13.8 -3.7H16.9L15.5 -8.9H15.3Z M23.3 0V-9.8H26.2L28.9 -1H29.1V-9.8H30.6V0H27.7L25.1 -8.8H24.8V0Z  M40.9 0V-1.1Q40.9 -2.1 41.3 -2.8Q41.6 -3.4 42.3 -3.9Q42.9 -4.3 43.9 -4.6L44.7 -4.8Q45.3 -5 45.7 -5.3Q46.1 -5.5 46.3 -5.9Q46.6 -6.3 46.6 -6.9V-6.9Q46.6 -7.7 46 -8.2Q45.5 -8.7 44.5 -8.7Q43.6 -8.7 43 -8.2Q42.4 -7.7 42.4 -6.7V-6.5H41V-6.7Q41 -7.7 41.4 -8.5Q41.9 -9.2 42.7 -9.6Q43.5 -10 44.5 -10Q45.5 -10 46.3 -9.6Q47.1 -9.2 47.6 -8.6Q48 -7.9 48 -7V-6.8Q48 -5.9 47.7 -5.2Q47.3 -4.6 46.6 -4.2Q45.9 -3.8 45.1 -3.5L44.3 -3.3Q43.6 -3.1 43.2 -2.8Q42.8 -2.6 42.6 -2.3Q42.4 -2 42.4 -1.5V-1.3H47.9V0Z M55.7 0.2Q54 0.2 52.9 -0.8Q51.9 -1.8 51.9 -3.7V-6.1Q51.9 -8 52.9 -9Q54 -10 55.7 -10Q57.4 -10 58.4 -9Q59.4 -8 59.4 -6.1V-3.7Q59.4 -1.8 58.4 -0.8Q57.4 0.2 55.7 0.2ZM55.7 -1.1Q56.8 -1.1 57.4 -1.8Q57.9 -2.4 57.9 -3.7V-6.2Q57.9 -7.4 57.3 -8Q56.7 -8.7 55.7 -8.7Q54.6 -8.7 54 -8Q53.4 -7.4 53.4 -6.2V-3.7Q53.4 -2.4 54 -1.8Q54.5 -1.1 55.7 -1.1Z M63.4 0V-1.1Q63.4 -2.1 63.7 -2.8Q64.1 -3.4 64.7 -3.9Q65.4 -4.3 66.3 -4.6L67.2 -4.8Q67.7 -5 68.1 -5.3Q68.6 -5.5 68.8 -5.9Q69 -6.3 69 -6.9V-6.9Q69 -7.7 68.4 -8.2Q67.9 -8.7 67 -8.7Q66 -8.7 65.5 -8.2Q64.9 -7.7 64.9 -6.7V-6.5H63.4V-6.7Q63.4 -7.7 63.9 -8.5Q64.3 -9.2 65.2 -9.6Q66 -10 67 -10Q68 -10 68.8 -9.6Q69.6 -9.2 70 -8.6Q70.5 -7.9 70.5 -7V-6.8Q70.5 -5.9 70.1 -5.2Q69.7 -4.6 69.1 -4.2Q68.4 -3.8 67.5 -3.5L66.7 -3.3Q66 -3.1 65.6 -2.8Q65.2 -2.6 65.1 -2.3Q64.9 -2 64.9 -1.5V-1.3H70.4V0Z M77.8 0.2Q76.7 0.2 75.9 -0.2Q75.1 -0.6 74.7 -1.4Q74.2 -2.1 74.2 -3.1V-3.2H75.7V-3.1Q75.7 -2.2 76.3 -1.7Q76.8 -1.1 77.8 -1.1Q78.8 -1.1 79.4 -1.7Q80 -2.2 80 -3.2V-3.3Q80 -4.2 79.4 -4.8Q78.8 -5.3 78 -5.3Q77.5 -5.3 77.2 -5.2Q76.9 -5 76.7 -4.8Q76.5 -4.6 76.4 -4.4H74.5V-9.8H81.1V-8.5H76V-5.6H76.2Q76.4 -5.8 76.6 -6Q76.9 -6.3 77.3 -6.4Q77.7 -6.5 78.3 -6.5Q79.2 -6.5 79.9 -6.2Q80.6 -5.8 81 -5.1Q81.4 -4.4 81.4 -3.3V-3.2Q81.4 -2.2 81 -1.4Q80.6 -0.6 79.8 -0.2Q78.9 0.2 77.8 0.2Z  M91.6 -2.9V-4.2H97.9V-2.9Z  M108.6 0V-9.8H112.4Q113.4 -9.8 114.1 -9.4Q114.8 -9.1 115.2 -8.4Q115.6 -7.8 115.6 -6.9V-6.7Q115.6 -5.8 115.1 -5.1Q114.7 -4.5 114 -4.1Q113.3 -3.8 112.4 -3.8H110.1V0ZM110.1 -5.1H112.3Q113.1 -5.1 113.6 -5.6Q114 -6 114 -6.7V-6.9Q114 -7.6 113.6 -8Q113.1 -8.4 112.3 -8.4H110.1Z M119.5 0V-9.8H123.6Q124.5 -9.8 125.2 -9.5Q125.9 -9.2 126.3 -8.6Q126.7 -8 126.7 -7.2V-7Q126.7 -6.1 126.3 -5.6Q125.8 -5 125.2 -4.8V-4.6Q125.7 -4.5 126 -4.2Q126.4 -3.9 126.4 -3.3V0H124.8V-3Q124.8 -3.4 124.6 -3.6Q124.4 -3.9 124 -3.9H121V0ZM121 -5.2H123.5Q124.3 -5.2 124.7 -5.6Q125.2 -6.1 125.2 -6.8V-6.9Q125.2 -7.6 124.7 -8Q124.3 -8.4 123.5 -8.4H121Z M130.9 0V-9.8H137.1V-8.4H132.4V-5.6H136.7V-4.2H132.4V-1.4H137.1V0Z M144.6 0.2Q143.5 0.2 142.6 -0.2Q141.8 -0.6 141.3 -1.3Q140.8 -2.1 140.8 -3.2V-3.6H142.3V-3.2Q142.3 -2.2 142.9 -1.6Q143.5 -1.1 144.6 -1.1Q145.6 -1.1 146.1 -1.6Q146.7 -2 146.7 -2.7Q146.7 -3.2 146.4 -3.5Q146.2 -3.8 145.7 -3.9Q145.2 -4.1 144.6 -4.3L144.1 -4.4Q143.1 -4.6 142.5 -4.9Q141.8 -5.3 141.4 -5.8Q141 -6.4 141 -7.2Q141 -8.1 141.4 -8.7Q141.9 -9.3 142.6 -9.7Q143.4 -10 144.4 -10Q145.4 -10 146.2 -9.6Q147 -9.3 147.5 -8.6Q148 -7.9 148 -6.9V-6.4H146.5V-6.9Q146.5 -7.5 146.2 -7.9Q145.9 -8.3 145.5 -8.5Q145 -8.7 144.4 -8.7Q143.5 -8.7 143 -8.3Q142.5 -7.9 142.5 -7.3Q142.5 -6.8 142.7 -6.5Q142.9 -6.2 143.4 -6.1Q143.8 -5.9 144.4 -5.7L144.9 -5.6Q145.9 -5.4 146.6 -5.1Q147.3 -4.7 147.8 -4.2Q148.2 -3.6 148.2 -2.7Q148.2 -1.9 147.7 -1.2Q147.3 -0.5 146.5 -0.2Q145.7 0.2 144.6 0.2Z M152.3 0V-9.8H158.4V-8.4H153.8V-5.6H158.1V-4.2H153.8V-1.4H158.5V0Z M162.6 0V-9.8H165.5L168.2 -1H168.4V-9.8H169.9V0H167L164.3 -8.8H164.1V0Z M176.8 0V-8.4H173.8V-9.8H181.3V-8.4H178.3V0Z"/>
</svg>
