<svg xmlns="http://www.w3.org/2000/svg" width="1200" height="60" viewBox="0 0 1200 60" role="img">
<rect x="0.5" y="0.5" width="1199" height="59" rx="12" fill="#fefdfb" stroke="#f3f0e9"/>
<defs><clipPath id="clip"><rect x="0" y="0" width="1200" height="60" rx="12"/></clipPath></defs>
<defs><path id="row4" d="M7.6 -12.1V-6.3H5.1V-12.1ZM12.7 -18.4V-6.3H10.2V-18.4ZM2.5 -12.1V0H0V-12.1Z M25 0V-18.4H27.5V-3L40.2 -11.4L42.8 -10.2L27.5 0Z M62.5 -10.5 55.1 -18.4H58.3L63.3 -13H74.8V-18.4H77.3V-10.5ZM77.3 -7.9V0H74.8V-5.4H63.3L58.3 0H55.1L62.5 -7.9Z M94 -15.9Q92.1 -15.9 92.1 -12.1V-6.3Q92.1 -2.5 94 -2.5H108.6Q110.5 -2.5 110.5 -6.3V-12.1Q110.5 -15.9 108.6 -15.9ZM92.8 0Q89.6 -0.6 89.6 -6.3V-12.1Q89.6 -17.8 92.8 -18.4H109.9Q113.1 -17.8 113.1 -12.1V-6.3Q113.1 -0.6 109.9 0Z M133.6 0 125.4 -18.4H143.2L143.2 -15.9V-13.3H140.6V-15.9H129.7L135.7 -2.5H145.7V-18.4H148.2V0Z M169.4 -18.4 174.5 -13H171.3L168.6 -15.9H163.7V-4.4Q163.7 -2.5 167.5 -2.5H175.8Q179.6 -2.5 179.6 -4.4V-18.4H182.1V-3.2Q181.5 0 175.8 0H167.5Q161.8 0 161.2 -3.2V-18.4Z M201.8 -10.5 194.4 -18.4H197.6L202.6 -13H214.1V-18.4H216.6V-10.5ZM216.6 -7.9V0H214.1V-5.4H202.6L197.6 0H194.4L201.8 -7.9Z M232.1 -15.9 242.9 0H239.7L229 -15.9V-18.4H246.7V-15.9Z M274.3 -10.5V-7.9H267.6L273 0H269.8L264.4 -7.9L259 -15.9V-18.4H276.8V-15.9L262.2 -15.9L265.9 -10.5Z M296.1 -14.6 294.8 -12.7 291.6 -15.2V0H289.1V-18.4H291.6Z M315.8 -10.5 308.4 -18.4H311.6L316.6 -13H328.1V-18.4H330.6V-10.5ZM330.6 -7.9V0H328.1V-5.4H316.6L311.6 0H308.4L315.8 -7.9Z M358.9 -2.5Q360.8 -2.5 360.8 -6.3V-12.1Q360.8 -15.9 358.9 -15.9V-18.4H360.1Q363.3 -17.8 363.3 -12.1V-6.3Q363.3 -0.6 360.1 0H355.4L350.5 -14.5L345.8 0H342.9L348.9 -18.4H352.1L357.6 -2.5Z   "/></defs><g clip-path="url(#clip)"><g transform="rotate(-6 600.0 30.0)" fill="#1d4ed8" fill-opacity="0.035"><use href="#row4" x="-360.0" y="-26.0"/><use href="#row4" x="91.9" y="-26.0"/><use href="#row4" x="543.9" y="-26.0"/><use href="#row4" x="995.8" y="-26.0"/><use href="#row4" x="1447.8" y="-26.0"/><use href="#row4" x="1899.7" y="-26.0"/><use href="#row4" x="-510.6" y="18.2"/><use href="#row4" x="-58.7" y="18.2"/><use href="#row4" x="393.2" y="18.2"/><use href="#row4" x="845.2" y="18.2"/><use href="#row4" x="1297.1" y="18.2"/><use href="#row4" x="1749.1" y="18.2"/><use href="#row4" x="-661.3" y="62.4"/><use href="#row4" x="-209.4" y="62.4"/><use href="#row4" x="242.6" y="62.4"/><use href="#row4" x="694.5" y="62.4"/><use href="#row4" x="1146.5" y="62.4"/><use href="#row4" x="1598.4" y="62.4"/><use href="#row4" x="-360.0" y="106.6"/><use href="#row4" x="91.9" y="106.6"/><use href="#row4" x="543.9" y="106.6"/><use href="#row4" x="995.8" y="106.6"/><use href="#row4" x="1447.8" y="106.6"/><use href="#row4" x="1899.7" y="106.6"/><use href="#row4" x="-510.6" y="150.8"/><use href="#row4" x="-58.7" y="150.8"/><use href="#row4" x="393.2" y="150.8"/><use href="#row4" x="845.2" y="150.8"/><use href="#row4" x="1297.1" y="150.8"/><use href="#row4" x="1749.1" y="150.8"/></g></g>
<rect x="28" y="18" width="231.8" height="24" rx="12" fill="#1d4ed8"/>
<path fill="#fefdfb" transform="translate(40,34)" d="M0.8 0V-7.7H2.1V-4.5H5.1V-7.7H6.5V0H5.1V-3.3H2.1V0Z M10.2 0 12.3 -7.7H14.6L16.7 0H15.3L14.9 -1.8H12L11.5 0ZM12.3 -3H14.6L13.5 -6.9H13.4Z M23.3 0.2Q21.9 0.2 21.1 -0.6Q20.3 -1.4 20.3 -2.9V-4.8Q20.3 -6.3 21.1 -7.1Q21.9 -7.9 23.3 -7.9Q24.7 -7.9 25.5 -7.1Q26.3 -6.3 26.3 -5V-4.9H25V-5Q25 -5.7 24.6 -6.2Q24.2 -6.7 23.3 -6.7Q22.5 -6.7 22 -6.2Q21.6 -5.7 21.6 -4.8V-2.9Q21.6 -2 22 -1.5Q22.5 -1 23.3 -1Q24.2 -1 24.6 -1.5Q25 -2 25 -2.7V-2.9H26.3V-2.7Q26.3 -1.4 25.5 -0.6Q24.7 0.2 23.3 0.2Z M30.3 0V-7.7H31.6V-4.6H31.8L34.5 -7.7H36.2L32.8 -3.9L36.3 0H34.5L31.8 -3.2H31.6V0Z M39.3 0 41.4 -7.7H43.7L45.8 0H44.5L44 -1.8H41.1L40.7 0ZM41.5 -3H43.7L42.7 -6.9H42.5Z M51.4 0V-6.5H49.1V-7.7H55V-6.5H52.7V0Z M58.8 0V-7.7H60.1V-4.5H63.2V-7.7H64.5V0H63.2V-3.3H60.1V0Z M71.7 0.2Q70.3 0.2 69.4 -0.6Q68.6 -1.4 68.6 -2.9V-4.8Q68.6 -6.3 69.4 -7.1Q70.3 -7.9 71.7 -7.9Q73.1 -7.9 74 -7.1Q74.8 -6.3 74.8 -4.8V-2.9Q74.8 -1.4 74 -0.6Q73.1 0.2 71.7 0.2ZM71.7 -1Q72.6 -1 73 -1.5Q73.5 -2 73.5 -2.9V-4.8Q73.5 -5.7 73 -6.2Q72.6 -6.7 71.7 -6.7Q70.9 -6.7 70.4 -6.2Q69.9 -5.7 69.9 -4.8V-2.9Q69.9 -2 70.4 -1.5Q70.9 -1 71.7 -1Z M78.9 0V-7.7H81.4L83.3 -0.9H83.4V-7.7H84.7V0H82.2L80.4 -6.8H80.2V0Z  M95 -2.2Q94.6 -2.2 94.3 -2.5Q94 -2.7 94 -3.2Q94 -3.6 94.3 -3.9Q94.6 -4.1 95 -4.1Q95.4 -4.1 95.7 -3.8Q95.9 -3.6 95.9 -3.1Q95.9 -2.7 95.7 -2.4Q95.4 -2.2 95 -2.2Z  M104.9 0V-0.9Q104.9 -1.7 105.2 -2.2Q105.5 -2.7 106 -3.1Q106.5 -3.4 107.2 -3.6L107.9 -3.9Q108.3 -4 108.6 -4.2Q108.9 -4.4 109.1 -4.7Q109.3 -5 109.3 -5.4V-5.4Q109.3 -6 108.8 -6.4Q108.4 -6.7 107.8 -6.7Q107.1 -6.7 106.6 -6.3Q106.2 -6 106.2 -5.3V-5.1H104.9V-5.2Q104.9 -6.1 105.3 -6.7Q105.7 -7.2 106.3 -7.5Q107 -7.9 107.8 -7.9Q108.5 -7.9 109.2 -7.6Q109.8 -7.3 110.2 -6.7Q110.5 -6.2 110.5 -5.4V-5.3Q110.5 -4.6 110.2 -4.1Q109.9 -3.6 109.4 -3.3Q108.9 -2.9 108.2 -2.7L107.5 -2.5Q107.1 -2.4 106.8 -2.2Q106.5 -2 106.3 -1.8Q106.2 -1.6 106.2 -1.2V-1.1H110.5V0Z  M121.9 0V-6.5H119.6V-7.7H125.5V-6.5H123.2V0Z M129.3 0V-7.7H132.6Q133.3 -7.7 133.8 -7.4Q134.4 -7.2 134.7 -6.7Q135 -6.3 135 -5.6V-5.5Q135 -4.8 134.6 -4.4Q134.3 -3.9 133.8 -3.8V-3.6Q134.2 -3.5 134.5 -3.3Q134.7 -3 134.7 -2.5V0H133.4V-2.4Q133.4 -2.6 133.2 -2.8Q133.1 -3 132.8 -3H130.6V0ZM130.6 -4.2H132.4Q133 -4.2 133.3 -4.5Q133.6 -4.8 133.6 -5.3V-5.4Q133.6 -5.9 133.3 -6.2Q133 -6.5 132.4 -6.5H130.6Z M138.4 0 140.5 -7.7H142.8L144.9 0H143.6L143.1 -1.8H140.2L139.8 0ZM140.6 -3H142.8L141.8 -6.9H141.6Z M151.6 0.2Q150.2 0.2 149.3 -0.6Q148.5 -1.4 148.5 -2.9V-4.8Q148.5 -6.3 149.3 -7.1Q150.2 -7.9 151.6 -7.9Q153 -7.9 153.7 -7.1Q154.5 -6.3 154.5 -5V-4.9H153.2V-5Q153.2 -5.7 152.8 -6.2Q152.4 -6.7 151.6 -6.7Q150.8 -6.7 150.3 -6.2Q149.8 -5.7 149.8 -4.8V-2.9Q149.8 -2 150.3 -1.5Q150.8 -1 151.6 -1Q152.4 -1 152.8 -1.5Q153.2 -2 153.2 -2.7V-2.9H154.5V-2.7Q154.5 -1.4 153.7 -0.6Q153 0.2 151.6 0.2Z M158.5 0V-7.7H159.8V-4.6H160L162.7 -7.7H164.4L161.1 -3.9L164.5 0H162.8L160 -3.2H159.8V0Z  M174.3 0 173.2 -7.7H174.6L175.4 -0.9H175.6L176.6 -7.7H178.9L180 -0.9H180.2L181 -7.7H182.4L181.3 0H179L177.9 -6.9H177.7L176.6 0Z M186.2 0V-7.7H187.5V0Z M191.8 0V-7.7H194.3L196.1 -0.9H196.3V-7.7H197.6V0H195.1L193.3 -6.8H193.1V0Z M204.6 0.2Q203.7 0.2 203 -0.2Q202.3 -0.5 201.9 -1.1Q201.6 -1.7 201.6 -2.5V-2.8H202.9V-2.5Q202.9 -1.8 203.3 -1.4Q203.8 -1 204.6 -1Q205.3 -1 205.7 -1.3Q206.1 -1.7 206.1 -2.2Q206.1 -2.5 205.9 -2.7Q205.8 -2.9 205.4 -3.1Q205 -3.2 204.5 -3.3L204.2 -3.4Q203.4 -3.6 202.9 -3.8Q202.3 -4.1 202 -4.5Q201.7 -5 201.7 -5.6Q201.7 -6.3 202.1 -6.8Q202.4 -7.3 203 -7.6Q203.6 -7.9 204.4 -7.9Q205.2 -7.9 205.9 -7.6Q206.5 -7.3 206.9 -6.8Q207.2 -6.2 207.2 -5.4V-5H205.9V-5.4Q205.9 -5.8 205.8 -6.1Q205.6 -6.4 205.2 -6.6Q204.9 -6.7 204.4 -6.7Q203.7 -6.7 203.4 -6.4Q203 -6.2 203 -5.7Q203 -5.4 203.2 -5.2Q203.4 -4.9 203.7 -4.8Q204 -4.7 204.5 -4.6L204.8 -4.5Q205.6 -4.3 206.2 -4Q206.8 -3.8 207.1 -3.3Q207.4 -2.9 207.4 -2.2Q207.4 -1.5 207.1 -1Q206.7 -0.4 206.1 -0.1Q205.4 0.2 204.6 0.2Z"/>
<path fill="#111827" d="M278.6 34V26.3H281.7Q282.4 26.3 283 26.6Q283.5 26.9 283.8 27.4Q284.1 27.9 284.1 28.6V28.7Q284.1 29.5 283.8 30Q283.5 30.5 282.9 30.8Q282.4 31 281.7 31H279.8V34ZM279.8 30H281.6Q282.2 30 282.6 29.6Q282.9 29.3 282.9 28.7V28.6Q282.9 28 282.6 27.7Q282.2 27.4 281.6 27.4H279.8Z M287.7 34V26.3H290.9Q291.6 26.3 292.2 26.5Q292.7 26.8 293 27.3Q293.3 27.7 293.3 28.4V28.5Q293.3 29.2 293 29.6Q292.6 30.1 292.1 30.2V30.4Q292.6 30.4 292.8 30.7Q293.1 31 293.1 31.4V34H291.9V31.6Q291.9 31.3 291.7 31.1Q291.6 31 291.2 31H288.9V34ZM288.9 29.9H290.8Q291.4 29.9 291.8 29.6Q292.1 29.2 292.1 28.7V28.6Q292.1 28 291.8 27.7Q291.4 27.4 290.8 27.4H288.9Z M300 34.2Q298.5 34.2 297.7 33.4Q296.9 32.6 296.9 31.1V29.2Q296.9 27.7 297.7 26.9Q298.5 26.1 300 26.1Q301.4 26.1 302.2 26.9Q303.1 27.7 303.1 29.2V31.1Q303.1 32.6 302.2 33.4Q301.4 34.2 300 34.2ZM300 33.1Q300.9 33.1 301.4 32.6Q301.9 32 301.9 31.1V29.2Q301.9 28.3 301.4 27.7Q300.9 27.2 300 27.2Q299.1 27.2 298.6 27.7Q298.1 28.3 298.1 29.2V31.1Q298.1 32 298.6 32.6Q299.1 33.1 300 33.1Z M306.9 34V26.3H309.1L310.8 33.2H311L312.7 26.3H314.9V34H313.7V27.1H313.6L311.9 34H309.9L308.2 27.1H308V34Z M318.9 34V26.3H322Q322.7 26.3 323.2 26.6Q323.8 26.9 324.1 27.4Q324.4 27.9 324.4 28.6V28.7Q324.4 29.5 324.1 30Q323.8 30.5 323.2 30.8Q322.7 31 322 31H320.1V34ZM320.1 30H321.9Q322.5 30 322.9 29.6Q323.2 29.3 323.2 28.7V28.6Q323.2 28 322.9 27.7Q322.5 27.4 321.9 27.4H320.1Z M329.8 34V27.4H327.4V26.3H333.4V27.4H331V34Z M336.9 31.7V30.7H340.1V31.7Z M344.2 34V26.3H345.3V34Z M349.4 34V26.3H351.7L353.7 33.2H353.9V26.3H355.1V34H352.8L350.7 27.1H350.5V34Z M361.2 34.2Q360.1 34.2 359.4 33.5Q358.7 32.9 358.7 31.7V31H359.9V31.7Q359.9 32.3 360.2 32.7Q360.6 33 361.2 33Q361.8 33 362.1 32.7Q362.4 32.3 362.4 31.7V27.4H361.1V26.3H364.5V27.4H363.6V31.7Q363.6 32.9 363 33.5Q362.4 34.2 361.2 34.2Z M368.2 34V26.3H373V27.4H369.4V29.6H372.7V30.7H369.4V32.9H373.1V34Z M379.6 34.2Q378.2 34.2 377.4 33.4Q376.5 32.6 376.5 31.1V29.2Q376.5 27.7 377.4 26.9Q378.2 26.1 379.6 26.1Q381 26.1 381.7 26.9Q382.5 27.7 382.5 29V29.1H381.3V29Q381.3 28.2 380.9 27.7Q380.5 27.2 379.6 27.2Q378.7 27.2 378.2 27.7Q377.7 28.3 377.7 29.2V31.1Q377.7 32 378.2 32.5Q378.7 33.1 379.6 33.1Q380.5 33.1 380.9 32.6Q381.3 32.1 381.3 31.3V31.1H382.5V31.3Q382.5 32.6 381.7 33.4Q381 34.2 379.6 34.2Z M388.1 34V27.4H385.7V26.3H391.6V27.4H389.3V34Z M395.1 34V26.3H396.3V34Z M403.2 34.2Q401.8 34.2 401 33.4Q400.1 32.6 400.1 31.1V29.2Q400.1 27.7 401 26.9Q401.8 26.1 403.2 26.1Q404.6 26.1 405.5 26.9Q406.3 27.7 406.3 29.2V31.1Q406.3 32.6 405.5 33.4Q404.6 34.2 403.2 34.2ZM403.2 33.1Q404.1 33.1 404.6 32.6Q405.1 32 405.1 31.1V29.2Q405.1 28.3 404.6 27.7Q404.1 27.2 403.2 27.2Q402.3 27.2 401.8 27.7Q401.3 28.3 401.3 29.2V31.1Q401.3 32 401.8 32.6Q402.3 33.1 403.2 33.1Z M410.2 34V26.3H412.4L414.5 33.2H414.7V26.3H415.9V34H413.6L411.5 27.1H411.3V34Z  M425.1 34V26.3H429.9V27.4H426.3V29.6H429.6V30.7H426.3V34Z M433.5 34V26.3H434.7V34Z M438.7 34V26.3H441.9Q442.6 26.3 443.2 26.5Q443.7 26.8 444 27.3Q444.3 27.7 444.3 28.4V28.5Q444.3 29.2 444 29.6Q443.6 30.1 443.1 30.2V30.4Q443.6 30.4 443.8 30.7Q444.1 31 444.1 31.4V34H442.9V31.6Q442.9 31.3 442.7 31.1Q442.5 31 442.2 31H439.9V34ZM439.9 29.9H441.8Q442.4 29.9 442.8 29.6Q443.1 29.2 443.1 28.7V28.6Q443.1 28 442.8 27.7Q442.4 27.4 441.8 27.4H439.9Z M448 34V26.3H452.9V27.4H449.2V29.6H452.6V30.7H449.2V32.9H453V34Z M457.3 34 456.2 26.3H457.4L458.3 33.2H458.5L459.6 26.3H461.7L462.9 33.2H463.1L464 26.3H465.2L464.1 34H462L460.8 27H460.6L459.4 34Z M468.2 34 470.4 26.3H472.5L474.7 34H473.5L473 32.2H470L469.5 34ZM470.3 31.1H472.7L471.6 27H471.4Z M478.2 34V26.3H479.4V32.9H483.1V34Z M486.6 34V26.3H487.8V32.9H491.5V34Z  M500.2 34V26.3H504.9V27.4H501.4V29.6H504.7V30.7H501.4V34Z M511.4 34.2Q510 34.2 509.2 33.4Q508.3 32.6 508.3 31.1V29.2Q508.3 27.7 509.2 26.9Q510 26.1 511.4 26.1Q512.8 26.1 513.7 26.9Q514.5 27.7 514.5 29.2V31.1Q514.5 32.6 513.7 33.4Q512.8 34.2 511.4 34.2ZM511.4 33.1Q512.3 33.1 512.8 32.6Q513.3 32 513.3 31.1V29.2Q513.3 28.3 512.8 27.7Q512.3 27.2 511.4 27.2Q510.5 27.2 510 27.7Q509.5 28.3 509.5 29.2V31.1Q509.5 32 510 32.6Q510.5 33.1 511.4 33.1Z M518.3 34V26.3H521.6Q522.3 26.3 522.8 26.5Q523.4 26.8 523.7 27.3Q524 27.7 524 28.4V28.5Q524 29.2 523.6 29.6Q523.3 30.1 522.8 30.2V30.4Q523.2 30.4 523.5 30.7Q523.7 31 523.7 31.4V34H522.5V31.6Q522.5 31.3 522.4 31.1Q522.2 31 521.9 31H519.5V34ZM519.5 29.9H521.5Q522.1 29.9 522.4 29.6Q522.8 29.2 522.8 28.7V28.6Q522.8 28 522.5 27.7Q522.1 27.4 521.5 27.4H519.5Z  M532.4 34 534.6 26.3H536.7L538.9 34H537.6L537.1 32.2H534.1L533.6 34ZM534.4 31.1H536.8L535.7 27H535.5Z M542.3 34V26.3H543.5V34Z  M552.2 34 554.4 26.3H556.5L558.7 34H557.4L556.9 32.2H553.9L553.4 34ZM554.2 31.1H556.6L555.5 27H555.3Z M564.8 34.2Q564 34.2 563.3 33.8Q562.7 33.4 562.3 32.7Q561.9 32.1 561.9 31.1V29.2Q561.9 27.7 562.8 26.9Q563.6 26.1 565 26.1Q566.4 26.1 567.1 26.9Q567.9 27.6 567.9 28.9V29H566.7V28.9Q566.7 28.4 566.5 28Q566.3 27.7 565.9 27.4Q565.6 27.2 565 27.2Q564.1 27.2 563.6 27.7Q563.1 28.3 563.1 29.2V31.1Q563.1 32 563.6 32.6Q564.1 33.1 565 33.1Q565.9 33.1 566.3 32.6Q566.7 32.1 566.7 31.4V31.2H564.6V30.2H567.9V34H566.8V33.2H566.6Q566.5 33.4 566.3 33.6Q566.1 33.9 565.8 34Q565.4 34.2 564.8 34.2Z M571.8 34V26.3H576.7V27.4H573V29.6H576.4V30.7H573V32.9H576.7V34Z M580.4 34V26.3H582.7L584.8 33.2H584.9V26.3H586.1V34H583.8L581.7 27.1H581.6V34Z M592 34V27.4H589.6V26.3H595.5V27.4H593.2V34Z M601.7 34.2Q600.8 34.2 600.1 33.8Q599.4 33.5 599.1 32.9Q598.7 32.3 598.7 31.5V31.2H599.9V31.5Q599.9 32.3 600.4 32.7Q600.8 33.1 601.7 33.1Q602.5 33.1 602.9 32.8Q603.3 32.4 603.3 31.9Q603.3 31.5 603.1 31.3Q602.9 31 602.6 30.9Q602.2 30.8 601.7 30.6L601.3 30.5Q600.5 30.4 600 30.1Q599.5 29.9 599.2 29.4Q598.9 29 598.9 28.3Q598.9 27.6 599.2 27.2Q599.5 26.7 600.1 26.4Q600.7 26.1 601.5 26.1Q602.3 26.1 603 26.4Q603.6 26.7 604 27.2Q604.3 27.8 604.3 28.6V29H603.1V28.6Q603.1 28.1 602.9 27.8Q602.7 27.5 602.4 27.3Q602 27.2 601.5 27.2Q600.8 27.2 600.4 27.5Q600 27.8 600 28.3Q600 28.6 600.2 28.9Q600.4 29.1 600.7 29.2Q601 29.4 601.5 29.5L601.9 29.6Q602.7 29.7 603.3 30Q603.8 30.3 604.2 30.7Q604.5 31.1 604.5 31.8Q604.5 32.5 604.1 33.1Q603.8 33.6 603.2 33.9Q602.5 34.2 601.7 34.2Z   M618.9 31.7Q618.5 31.7 618.3 31.5Q618 31.2 618 30.8Q618 30.4 618.3 30.2Q618.5 29.9 618.9 29.9Q619.3 29.9 619.6 30.2Q619.8 30.5 619.8 30.8Q619.8 31.2 619.6 31.5Q619.3 31.7 618.9 31.7Z   M633.7 34V26.3H634.9V29.6H638.1V26.3H639.3V34H638.1V30.7H634.9V34Z M646.2 34.2Q644.8 34.2 644 33.4Q643.1 32.6 643.1 31.1V29.2Q643.1 27.7 644 26.9Q644.8 26.1 646.2 26.1Q647.7 26.1 648.5 26.9Q649.3 27.7 649.3 29.2V31.1Q649.3 32.6 648.5 33.4Q647.7 34.2 646.2 34.2ZM646.2 33.1Q647.1 33.1 647.6 32.6Q648.1 32 648.1 31.1V29.2Q648.1 28.3 647.6 27.7Q647.1 27.2 646.2 27.2Q645.3 27.2 644.8 27.7Q644.3 28.3 644.3 29.2V31.1Q644.3 32 644.8 32.6Q645.3 33.1 646.2 33.1Z M656.1 34.2Q654.6 34.2 653.8 33.4Q653 32.6 653 31.1V29.2Q653 27.7 653.8 26.9Q654.6 26.1 656.1 26.1Q657.5 26.1 658.3 26.9Q659.2 27.7 659.2 29.2V31.1Q659.2 32.6 658.3 33.4Q657.5 34.2 656.1 34.2ZM656.1 33.1Q657 33.1 657.5 32.6Q658 32 658 31.1V29.2Q658 28.3 657.5 27.7Q657 27.2 656.1 27.2Q655.2 27.2 654.7 27.7Q654.2 28.3 654.2 29.2V31.1Q654.2 32 654.7 32.6Q655.2 33.1 656.1 33.1Z M663 34V26.3H664.2V29.5H664.4L667.2 26.3H668.8L665.3 30.1L668.9 34H667.3L664.4 30.7H664.2V34Z  M677.5 29.3V28.6H677.8Q678.3 28.6 678.3 28.2V27.8H678.1Q677.8 27.8 677.5 27.6Q677.2 27.4 677.2 27Q677.2 26.6 677.5 26.4Q677.8 26.1 678.1 26.1Q678.5 26.1 678.8 26.4Q679 26.6 679 27V28.2Q679 29.3 677.9 29.3Z M682.9 34V26.3H687.7V27.4H684V29.6H687.4V30.7H684V32.9H687.8V34Z M691.4 34V26.3H693.7L695.3 33.2H695.5L697.2 26.3H699.4V34H698.3V27.1H698.1L696.4 34H694.4L692.8 27.1H692.6V34Z  M708.7 34V26.3H709.9V29.6H713.1V26.3H714.3V34H713.1V30.7H709.9V34Z M717.8 34 719.9 26.3H722L724.2 34H723L722.5 32.2H719.5L719 34ZM719.8 31.1H722.2L721.1 27H720.9Z M730.5 34.2Q729.1 34.2 728.3 33.4Q727.5 32.6 727.5 31.1V29.2Q727.5 27.7 728.3 26.9Q729.1 26.1 730.5 26.1Q731.9 26.1 732.7 26.9Q733.4 27.7 733.4 29V29.1H732.3V29Q732.3 28.2 731.8 27.7Q731.4 27.2 730.5 27.2Q729.7 27.2 729.2 27.7Q728.7 28.3 728.7 29.2V31.1Q728.7 32 729.2 32.5Q729.7 33.1 730.5 33.1Q731.4 33.1 731.8 32.6Q732.3 32.1 732.3 31.3V31.1H733.4V31.3Q733.4 32.6 732.7 33.4Q731.9 34.2 730.5 34.2Z M737.2 34V26.3H738.4V29.5H738.5L741.4 26.3H743L739.5 30.1L743.1 34H741.5L738.5 30.7H738.4V34Z M749 34.2Q748.2 34.2 747.5 33.8Q746.8 33.5 746.4 32.9Q746 32.3 746 31.5V31.2H747.2V31.5Q747.2 32.3 747.7 32.7Q748.2 33.1 749 33.1Q749.8 33.1 750.3 32.8Q750.7 32.4 750.7 31.9Q750.7 31.5 750.5 31.3Q750.3 31 749.9 30.9Q749.6 30.8 749.1 30.6L748.6 30.5Q747.9 30.4 747.4 30.1Q746.8 29.9 746.5 29.4Q746.2 29 746.2 28.3Q746.2 27.6 746.6 27.2Q746.9 26.7 747.5 26.4Q748.1 26.1 748.9 26.1Q749.7 26.1 750.3 26.4Q751 26.7 751.3 27.2Q751.7 27.8 751.7 28.6V29H750.5V28.6Q750.5 28.1 750.3 27.8Q750.1 27.5 749.7 27.3Q749.4 27.2 748.9 27.2Q748.2 27.2 747.8 27.5Q747.4 27.8 747.4 28.3Q747.4 28.6 747.6 28.9Q747.7 29.1 748.1 29.2Q748.4 29.4 748.9 29.5L749.3 29.6Q750.1 29.7 750.6 30Q751.2 30.3 751.5 30.7Q751.9 31.1 751.9 31.8Q751.9 32.5 751.5 33.1Q751.2 33.6 750.5 33.9Q749.9 34.2 749 34.2Z"/>
<path fill="#4b5563" transform="translate(1102.3,34)" d="M0.2 0 2.4 -7.7H4.5L6.7 0H5.5L5 -1.8H2L1.5 0ZM2.3 -2.9H4.7L3.6 -7H3.4Z M10.2 0V-7.7H13.2Q13.9 -7.7 14.5 -7.4Q15 -7.1 15.4 -6.6Q15.7 -6.1 15.7 -5.4V-5.3Q15.7 -4.5 15.4 -4Q15 -3.5 14.5 -3.2Q13.9 -3 13.2 -3H11.4V0ZM11.4 -4H13.1Q13.7 -4 14.1 -4.4Q14.5 -4.7 14.5 -5.3V-5.4Q14.5 -6 14.1 -6.3Q13.7 -6.6 13.1 -6.6H11.4Z M19.2 0V-7.7H22.5Q23.2 -7.7 23.7 -7.5Q24.3 -7.2 24.6 -6.7Q24.9 -6.3 24.9 -5.6V-5.5Q24.9 -4.8 24.5 -4.4Q24.2 -3.9 23.7 -3.8V-3.6Q24.1 -3.6 24.4 -3.3Q24.6 -3 24.6 -2.6V0H23.4V-2.4Q23.4 -2.7 23.3 -2.9Q23.1 -3 22.8 -3H20.4V0ZM20.4 -4.1H22.3Q23 -4.1 23.3 -4.4Q23.7 -4.8 23.7 -5.3V-5.4Q23.7 -6 23.3 -6.3Q23 -6.6 22.3 -6.6H20.4Z  M33.5 0V-0.9Q33.5 -1.7 33.8 -2.2Q34.1 -2.7 34.6 -3Q35.1 -3.4 35.8 -3.6L36.5 -3.8Q37 -3.9 37.3 -4.1Q37.6 -4.3 37.8 -4.7Q38 -5 38 -5.4V-5.4Q38 -6.1 37.5 -6.5Q37.1 -6.8 36.4 -6.8Q35.6 -6.8 35.2 -6.4Q34.7 -6 34.7 -5.3V-5.1H33.6V-5.2Q33.6 -6.1 33.9 -6.7Q34.3 -7.2 34.9 -7.5Q35.6 -7.9 36.4 -7.9Q37.2 -7.9 37.8 -7.6Q38.4 -7.3 38.8 -6.7Q39.1 -6.2 39.1 -5.5V-5.4Q39.1 -4.6 38.8 -4.1Q38.5 -3.6 38 -3.3Q37.5 -3 36.8 -2.8L36.2 -2.6Q35.6 -2.4 35.3 -2.2Q35 -2 34.9 -1.8Q34.7 -1.5 34.7 -1.1V-1H39.1V0Z M45.6 0.2Q44.2 0.2 43.4 -0.6Q42.6 -1.4 42.6 -2.9V-4.8Q42.6 -6.3 43.4 -7.1Q44.2 -7.9 45.6 -7.9Q46.9 -7.9 47.7 -7.1Q48.5 -6.3 48.5 -4.8V-2.9Q48.5 -1.4 47.7 -0.6Q46.9 0.2 45.6 0.2ZM45.6 -0.9Q46.5 -0.9 46.9 -1.4Q47.4 -1.9 47.4 -2.9V-4.8Q47.4 -5.8 46.9 -6.3Q46.4 -6.8 45.6 -6.8Q44.7 -6.8 44.2 -6.3Q43.8 -5.8 43.8 -4.8V-2.9Q43.8 -1.9 44.2 -1.4Q44.7 -0.9 45.6 -0.9Z M52.1 0V-0.9Q52.1 -1.7 52.3 -2.2Q52.6 -2.7 53.1 -3Q53.6 -3.4 54.4 -3.6L55 -3.8Q55.5 -3.9 55.8 -4.1Q56.1 -4.3 56.3 -4.7Q56.5 -5 56.5 -5.4V-5.4Q56.5 -6.1 56 -6.5Q55.6 -6.8 54.9 -6.8Q54.2 -6.8 53.7 -6.4Q53.2 -6 53.2 -5.3V-5.1H52.1V-5.2Q52.1 -6.1 52.5 -6.7Q52.8 -7.2 53.5 -7.5Q54.1 -7.9 54.9 -7.9Q55.7 -7.9 56.3 -7.6Q56.9 -7.3 57.3 -6.7Q57.6 -6.2 57.6 -5.5V-5.4Q57.6 -4.6 57.3 -4.1Q57 -3.6 56.5 -3.3Q56 -3 55.3 -2.8L54.7 -2.6Q54.2 -2.4 53.8 -2.2Q53.5 -2 53.4 -1.8Q53.2 -1.5 53.2 -1.1V-1H57.6V0Z M64 0.2Q63.1 0.2 62.5 -0.2Q61.8 -0.5 61.5 -1.1Q61.1 -1.7 61.1 -2.4V-5.1Q61.1 -6 61.5 -6.6Q61.9 -7.2 62.5 -7.5Q63.1 -7.9 64 -7.9Q64.9 -7.9 65.5 -7.6Q66.1 -7.3 66.4 -6.7Q66.7 -6.2 66.7 -5.5H65.6Q65.6 -6.1 65.2 -6.4Q64.8 -6.8 64 -6.8Q63.2 -6.8 62.7 -6.4Q62.3 -5.9 62.3 -5.2V-4.3H62.5Q62.7 -4.5 63.1 -4.8Q63.5 -5 64.3 -5Q65 -5 65.5 -4.7Q66.1 -4.4 66.5 -3.9Q66.8 -3.3 66.8 -2.5V-2.4Q66.8 -1.6 66.4 -1.1Q66.1 -0.5 65.4 -0.2Q64.8 0.2 64 0.2ZM64 -0.9Q64.7 -0.9 65.2 -1.3Q65.6 -1.7 65.6 -2.4V-2.5Q65.6 -3 65.4 -3.3Q65.2 -3.7 64.9 -3.9Q64.5 -4.1 64 -4.1Q63.5 -4.1 63.1 -3.9Q62.7 -3.7 62.5 -3.3Q62.3 -3 62.3 -2.5V-2.4Q62.3 -1.7 62.7 -1.3Q63.2 -0.9 64 -0.9Z"/>
</svg>
